<?xml version="1.0" encoding="UTF-8" standalone="no"?>
<!-- Uploaded to: SVG Repo, www.svgrepo.com, Generator: SVG Repo Mixer Tools -->

<svg
   fill="#000000"
   width="512"
   height="512"
   viewBox="-1.5 0 12.16 12.16"
   class="cf-icon-svg"
   version="1.1"
   id="svg1"
   sodipodi:docname="foreground.svg"
   inkscape:version="1.3 (0e150ed6c4, 2023-07-21)"
   xmlns:inkscape="http://www.inkscape.org/namespaces/inkscape"
   xmlns:sodipodi="http://sodipodi.sourceforge.net/DTD/sodipodi-0.dtd"
   xmlns="http://www.w3.org/2000/svg"
   xmlns:svg="http://www.w3.org/2000/svg">
  <defs
     id="defs1" />
  <sodipodi:namedview
     id="namedview1"
     pagecolor="#ffffff"
     bordercolor="#000000"
     borderopacity="0.25"
     inkscape:showpageshadow="2"
     inkscape:pageopacity="0.0"
     inkscape:pagecheckerboard="0"
     inkscape:deskcolor="#d1d1d1"
     inkscape:zoom="0.98625"
     inkscape:cx="399.49303"
     inkscape:cy="400"
     inkscape:window-width="1920"
     inkscape:window-height="1000"
     inkscape:window-x="0"
     inkscape:window-y="0"
     inkscape:window-maximized="1"
     inkscape:current-layer="svg1" />
  <path
     d="m 3.5818005,3.3677841 v 1.593238 a 0.48504076,0.49118083 0 0 1 -0.9691397,0 V 4.4984538 A 2.5434031,2.5755997 0 0 0 2.1266782,5.5809591 0.48504076,0.49118083 0 1 1 1.1754333,5.3925936 3.5139555,3.5584382 0 0 1 1.8761523,3.8580112 H 1.5239091 a 0.48504076,0.49118083 0 1 1 0,-0.9814079 H 3.0967597 A 0.48504076,0.49118083 0 0 1 3.5818005,3.3677841 Z M 2.0513321,7.7726747 A 0.48409894,0.49022708 0 0 1 1.4118318,7.5232693 3.5304375,3.5751288 0 0 1 1.2375938,7.0292272 0.48504076,0.49118083 0 1 1 2.171415,6.7669462 2.5777797,2.6104115 0 0 0 2.2980907,7.125079 0.48456985,0.49070395 0 0 1 2.0513321,7.7726747 Z M 3.4193354,8.9357718 A 0.48409894,0.49022708 0 0 1 2.7506384,9.0893255 3.5422103,3.5870507 0 0 1 2.3338801,8.7784032 0.48504076,0.49118083 0 0 1 2.964904,8.0330482 2.5594141,2.5918134 0 0 0 3.2677013,8.2586099 0.48504076,0.49118083 0 0 1 3.4193354,8.9357718 Z M 5.1522966,9.1446429 A 0.48504076,0.49118083 0 0 1 4.6747904,9.6425 H 4.6248736 A 3.5261993,3.5708369 0 0 1 4.2429629,9.6215175 0.48504076,0.49118083 0 0 1 4.3484475,8.6458321 2.5476413,2.5798915 0 0 0 4.6611339,8.6606152 h 0.00659 A 0.48504076,0.49118083 0 0 1 5.1527647,9.1446429 Z M 5.1683076,3.0182351 A 0.48504076,0.49118083 0 0 1 4.6837378,3.4998784 h -0.01554 a 0.48505733,0.49119759 0 0 1 0.00801,-0.9823617 h 0.00801 l 0.00894,4.769e-4 A 0.48504076,0.49118083 0 0 1 5.1683076,3.0187119 Z M 6.6921833,8.3830742 A 0.48456985,0.49070395 0 0 1 6.5509093,9.0626205 3.5210192,3.5655913 0 0 1 6.1755913,9.2786447 0.48504076,0.49118083 0 1 1 5.7494147,8.3969036 2.5801343,2.6127959 0 0 0 6.0216026,8.2404887 0.48504076,0.49118083 0 0 1 6.6921833,8.3835511 Z M 5.7564784,3.1875255 A 0.48456985,0.49070395 0 0 1 6.4204663,3.0163276 l 0.00848,0.00525 A 0.48504076,0.49118083 0 1 1 5.9297745,3.86278 L 5.9250645,3.85992 A 0.48456985,0.49070395 0 0 1 5.7564784,3.1875255 Z M 7.7625693,7.691606 A 3.5318502,3.5765594 0 0 1 7.6142316,7.9586558 0.48504076,0.49118083 0 1 1 6.7906042,7.44077 2.3592759,2.3891417 0 0 0 6.8979724,7.2476358 0.48504076,0.49118083 0 1 1 7.7625693,7.6911292 Z M 6.8400501,4.805561 A 0.48504076,0.49118083 0 0 1 7.682985,4.3210564 l 0.00377,0.0062 A 0.48504076,0.49118083 0 1 1 6.8438174,4.8122373 Z m 1.3016045,1.1859871 a 4.3922089,4.4478093 0 0 1 0,0.1745361 0.48504076,0.49118083 0 0 1 -0.4845699,0.479259 h -0.011773 a 0.48504076,0.49118083 0 0 1 -0.472797,-0.5031027 2.1779743,2.205545 0 0 0 0,-0.1268486 0.48504076,0.49118083 0 0 1 0.4723261,-0.5031027 h 0.012244 a 0.48504076,0.49118083 0 0 1 0.4845699,0.478782 z"
     id="path1"
     style="stroke-width:0.473884;fill:#ffffff" />
</svg>
